<?xml version="1.0" encoding="UTF-8" standalone="no"?>
<svg
   xmlns:dc="http://purl.org/dc/elements/1.1/"
   xmlns:cc="http://creativecommons.org/ns#"
   xmlns:rdf="http://www.w3.org/1999/02/22-rdf-syntax-ns#"
   xmlns:svg="http://www.w3.org/2000/svg"
   xmlns="http://www.w3.org/2000/svg"
   xmlns:sodipodi="http://sodipodi.sourceforge.net/DTD/sodipodi-0.dtd"
   xmlns:inkscape="http://www.inkscape.org/namespaces/inkscape"
   width="101"
   height="80"
   viewBox="0 0 101 80"
   fill="none"
   version="1.1"
   id="svg54"
   sodipodi:docname="31fde13d3508b8ddb01cf817ad09c690.svg"
   inkscape:version="1.0.1 (3bc2e813f5, 2020-09-07)">
  <metadata
     id="metadata60">
    <rdf:RDF>
      <cc:Work
         rdf:about="">
        <dc:format>image/svg+xml</dc:format>
        <dc:type
           rdf:resource="http://purl.org/dc/dcmitype/StillImage" />
        <dc:title></dc:title>
      </cc:Work>
    </rdf:RDF>
  </metadata>
  <defs
     id="defs58" />
  <sodipodi:namedview
     pagecolor="#ffffff"
     bordercolor="#666666"
     borderopacity="1"
     objecttolerance="10"
     gridtolerance="10"
     guidetolerance="10"
     inkscape:pageopacity="0"
     inkscape:pageshadow="2"
     inkscape:window-width="1920"
     inkscape:window-height="1001"
     id="namedview56"
     showgrid="false"
     inkscape:zoom="5.1875"
     inkscape:cx="39.400674"
     inkscape:cy="50.301333"
     inkscape:window-x="-9"
     inkscape:window-y="-9"
     inkscape:window-maximized="1"
     inkscape:current-layer="svg54" />
  <path
     d="m 41.794,2.18501 c -0.1,-0.655 1.279,-1.409001 3.081,-1.685001 1.802,-0.276 3.343,0.031997 3.443,0.687001 C 48.419,1.84201 47.04,2.597 45.238,2.872 43.436,3.148 41.895,2.84001 41.794,2.18501 Z"
     fill="#823d68"
     id="path2" />
  <path
     d="m 91.40106,66.501 2.59998,-0.2 2.60003,12.9 c -4.9,0 -5.49998,-6 -7.79997,-6.4 z"
     fill="#73375d"
     id="path4" />
  <path
     d="m 65.6,19.301 h 1.9 v 37.9 h -1.9 z"
     fill="#823d68"
     id="path6" />
  <path
     d="M 22.7999,28.4 H 24.7 v 24.98 h -1.9001 z"
     fill="#823d68"
     id="path8" />
  <path
     d="m 43.5007,2 h 2.3001 v 53.11 h -2.3001 z"
     fill="#823d68"
     id="path10" />
  <path
     d="m 53.7002,47.301 -1.8,-11.2 c -0.9,-6.009 -0.799,-12.125 0.3,-18.1 l 1.5,-8.19997 -16.9,7.39997 -1.6,6.8 c -2.178,9.401 -2.82,19.093 -1.9,28.7 z"
     fill="#bed3ff"
     id="path12" />
  <path
     d="m 29.801,53.401 v -25.7 l -20.8,23.4 z"
     fill="#bed3ff"
     id="path14" />
  <path
     d="m 76.8999,50.4 -18.8,3.7 V 15.5 Z"
     fill="#bed3ff"
     id="path16" />
  <path
     d="M 85.9999,53.4 0,48 v 1.4 l 18.4999,4.8 14.8,12.3 c 7.695,6.323 17.341,9.785 27.3,9.8 h 22.8 c 1.577,-0.011 3.124,-0.432 4.49,-1.222 1.365,-0.79 2.502,-1.92 3.29901,-3.282 0.796,-1.361 1.225,-2.906 1.245,-4.483 0.019,-1.577 -0.37104,-3.132 -1.13404,-4.513 z"
     fill="#924d79"
     id="path18" />
  <path
     d="m 29.0999,63 60.9,-2.4 1.29997,2.2 c 0.763,1.38 1.15304,2.935 1.13404,4.512 -0.02,1.578 -0.449,3.123 -1.245,4.484 -0.79701,1.361 -1.93401,2.492 -3.29901,3.282 -1.366,0.789 -2.913,1.21 -4.49,1.222 h -22.8 c -9.959,-0.015 -19.605,-3.478 -27.3,-9.8 z"
     fill="#87416d"
     id="path20" />
  <path
     d="m 33.2999,66.5 -1.8,-1.5 60.4,5.2 c -0.604,1.776 -1.748,3.318 -3.272,4.412 -1.524,1.094 -3.352,1.684 -5.228,1.688 h -22.8 c -9.959,-0.015 -19.605,-3.477 -27.3,-9.8 z"
     fill="#823d68"
     id="path22" />
  <path
     d="m 72.501,61.301 6.7,9.4 c 0.382,0.549 0.89,0.999 1.482,1.312 0.591,0.313 1.249,0.48 1.918,0.488 h 2 c 0.099,0.005 0.197,-0.013 0.287,-0.055 0.09,-0.042 0.168,-0.105 0.227,-0.184 0.06,-0.079 0.099,-0.172 0.114,-0.27 0.014,-0.098 0.005,-0.198 -0.028,-0.291 l -3.6,-10.4 z"
     fill="#73375d"
     id="path24" />
  <path
     d="m 86.9008,61.301 c 0.566,0.075 1.081,0.367 1.435,0.815 0.355,0.448 0.5211,1.016 0.4651,1.585 0.027,0.276 -1e-4,0.555 -0.0811,0.82 -0.081,0.265 -0.2129,0.512 -0.3899,0.726 -0.177,0.214 -0.3941,0.39 -0.6391,0.52 -0.246,0.129 -0.514,0.209 -0.79,0.234 h -4.4 v -4.7 z"
     fill="#ab9746"
     id="path26" />
  <path
     d="m 82.5007,66 c -1.271,0 -2.3,-1.029 -2.3,-2.3 0,-1.27 1.029,-2.3 2.3,-2.3 1.27,0 2.3001,1.03 2.3001,2.3 0,1.271 -1.0301,2.3 -2.3001,2.3 z"
     fill="#ab9746"
     id="path28" />
  <path
     d="m 67.9,63.401 h 32.6 v -3 l -28,-1.2 z"
     fill="#c9be90"
     id="path30" />
  <path
     d="m 100.5,61.101 -28,-1.9 28,1.2 z"
     fill="#e8dba6"
     id="path32" />
  <path
     d="m 81.3368,57.21 c -0.221,-0.566 -0.1079,-1.138 0.2531,-1.279 0.36,-0.14 0.831,0.205 1.051,0.771 0.221,0.566 0.1079,1.138 -0.2521,1.279 -0.36,0.14 -0.831,-0.205 -1.052,-0.771 z"
     fill="#87416d"
     id="path34" />
  <path
     d="m 74.2241,56.714 c -0.221,-0.566 -0.108,-1.138 0.252,-1.279 0.361,-0.14 0.831,0.205 1.052,0.771 0.221,0.566 0.108,1.138 -0.252,1.279 -0.361,0.14 -0.832,-0.205 -1.052,-0.771 z"
     fill="#87416d"
     id="path36" />
  <path
     d="m 66.5859,56.021 c -0.221,-0.566 -0.107,-1.139 0.253,-1.279 0.36,-0.141 0.831,0.204 1.051,0.77 0.221,0.566 0.108,1.139 -0.252,1.279 -0.36,0.141 -0.831,-0.204 -1.052,-0.77 z"
     fill="#87416d"
     id="path38" />
  <path
     d="m 58.8191,55.574 c -0.221,-0.566 -0.108,-1.139 0.252,-1.28 0.36,-0.14 0.831,0.205 1.052,0.771 0.221,0.566 0.107,1.139 -0.253,1.279 -0.36,0.141 -0.831,-0.204 -1.051,-0.77 z"
     fill="#87416d"
     id="path40" />
  <path
     d="m 50.433,55.066 c -0.221,-0.566 -0.1079,-1.139 0.2521,-1.279 0.361,-0.141 0.831,0.204 1.052,0.77 0.221,0.566 0.1079,1.139 -0.2521,1.279 -0.361,0.141 -0.832,-0.204 -1.052,-0.77 z"
     fill="#87416d"
     id="path42" />
  <path
     d="m 41.1198,54.519 c -0.22,-0.566 -0.107,-1.139 0.253,-1.279 0.36,-0.141 0.831,0.204 1.052,0.77 0.22,0.566 0.107,1.139 -0.253,1.279 -0.36,0.141 -0.831,-0.204 -1.052,-0.77 z"
     fill="#87416d"
     id="path44" />
  <path
     d="M 34.0007,17.1 57.3008,7.29997 V 6.09998 L 34.0007,15.9 Z"
     fill="#823d68"
     id="path46" />
  <path
     d="m 35.2002,24.001 1.6,-6.8 16.9,-7.39997 -1.5,8.19997 c -0.1,0.7 -0.3,1.5 -0.4,2.2 l -17,5.8 c 0.1,-0.6 0.3,-1.3 0.4,-2 z"
     fill="#dee9ff"
     id="path48" />
  <path
     d="m 85.701,20.701 -1.7999,-0.7 c -0.1,-0.1 -0.1,-0.1 0,-0.1 l 1.7999,-0.8 0.8,-1.8 0.8001,1.8 1.8,0.8 -1.8,0.7 -0.8001,1.7 -0.8,-1.7 z"
     fill="#194df2"
     id="path50" />
  <path
     d="m 21.201,67.101 -1.8,-0.8 1.8,-0.8 0.8,-1.8 h 0.1 l 0.8,1.8 1.7,0.8 c 0.1,0 0.1,0.1 0,0.1 l -1.7,0.8 -0.8,1.8 h -0.1 l -0.8,-1.8 z"
     fill="#ff7abc"
     id="path52" />
</svg>
